# xmcd CD database file
#
# Track frame offsets:
#	150
#	14587
#	27332
#	39707
#	51030
#	65477
#	80017
#	103275
#	118182
#	141375
#	155482
#	166227
#	181025
#	210222
#	225142
#	237737
#	250967
#	266310
#	277620
#	290687
#
# Disc length: 4067 seconds
#
# Revision: 0
# Processed by: cddbd v1.4PL0 Copyright (c) Steve Scherf et al.
# Submitted via: CDex 1.50Beta5
#
DISCID=180fe114
DTITLE=Various Artist - Everything is Jumpin' - La batteria nelle big band Vol. 2
DYEAR=2001
DGENRE=Jazz
TTITLE0=Swingtime in the Rockies
TTITLE1=Full Dress Hop
TTITLE2=Swinging The Blues
TTITLE3=Clap Hands, Here Comes Charlie!
TTITLE4=I'm Prayin' Humble
TTITLE5=Stomp Off, Let's Go
TTITLE6=Milenberg Joys
TTITLE7=Apple Honey
TTITLE8=Everything is Jumpin'
TTITLE9=Desperate Desmond
TTITLE10=Johnson Rag
TTITLE11=Back Bay Shuffle
TTITLE12=Blues
TTITLE13=Hangover Square
TTITLE14=Ring Dem Bells
TTITLE15=Dexter Blues
TTITLE16=Apollo Jump
TTITLE17=Our Delight
TTITLE18=Keen and Peachy
TTITLE19=More Moon
EXTD=YEAR: 2001
EXTT0=
EXTT1=
EXTT2=
EXTT3=
EXTT4=
EXTT5=
EXTT6=
EXTT7=
EXTT8=
EXTT9=
EXTT10=
EXTT11=
EXTT12=
EXTT13=
EXTT14=
EXTT15=
EXTT16=
EXTT17=
EXTT18=
EXTT19=
PLAYORDER=
